<svg width="20" height="16" viewBox="0 0 20 16" fill="none" xmlns="http://www.w3.org/2000/svg">
<rect x="0.5" y="0.5" width="19" height="15" rx="0.5" stroke="#2D3238"/>
<circle cx="10" cy="6" r="3.5" stroke="#2D3238"/>
<mask id="path-3-inside-1_455_2553" fill="white">
<path d="M10 11C8.0399 11 5.2794 11.5722 4.33328 14.0384C3.93765 15.0697 4.89543 16 6 16H14C15.1046 16 16.0624 15.0697 15.6667 14.0384C14.7206 11.5722 11.9601 11 10 11Z"/>
</mask>
<path d="M4.33328 14.0384L5.26694 14.3966L4.33328 14.0384ZM15.6667 14.0384L14.7331 14.3966L15.6667 14.0384ZM5.26694 14.3966C5.62069 13.4745 6.31067 12.8861 7.18022 12.5136C8.06798 12.1332 9.10188 12 10 12V10C8.93802 10 7.61162 10.1529 6.39258 10.6752C5.15532 11.2053 3.99199 12.1361 3.39963 13.6802L5.26694 14.3966ZM10 12C10.8981 12 11.932 12.1332 12.8198 12.5136C13.6893 12.8861 14.3793 13.4745 14.7331 14.3966L16.6004 13.6802C16.008 12.1361 14.8447 11.2053 13.6074 10.6752C12.3884 10.1529 11.062 10 10 10V12ZM6 17H14V15H6V17ZM3.39963 13.6802C3.04888 14.5945 3.31702 15.4758 3.86355 16.078C4.38965 16.6577 5.17856 17 6 17V15C5.71687 15 5.47461 14.8772 5.34458 14.7339C5.2835 14.6666 5.25737 14.6069 5.24783 14.5638C5.23949 14.5262 5.23713 14.4743 5.26694 14.3966L3.39963 13.6802ZM14.7331 14.3966C14.7629 14.4743 14.7605 14.5262 14.7522 14.5638C14.7426 14.6069 14.7165 14.6666 14.6554 14.7339C14.5254 14.8772 14.2831 15 14 15V17C14.8214 17 15.6104 16.6577 16.1365 16.078C16.683 15.4758 16.9511 14.5945 16.6004 13.6802L14.7331 14.3966Z" fill="#2D3238" mask="url(#path-3-inside-1_455_2553)"/>
</svg>
