<svg width="18" height="18" viewBox="0 0 18 18" fill="none" xmlns="http://www.w3.org/2000/svg">
<path d="M10.4502 2.62035C10.452 2.61853 10.452 2.61555 10.4502 2.61372C9.10431 1.27084 7.2379 0.766955 5.49795 1.0988C4.8192 1.22825 4.66817 2.0513 5.15691 2.53976L6.90169 4.28355C7.08935 4.4711 7.19478 4.72554 7.19478 4.99086V6.18464C7.19478 6.73692 6.74707 7.18464 6.19478 7.18464H4.99791C4.73354 7.18464 4.47994 7.07996 4.29254 6.89348L2.53943 5.14898C2.05058 4.66254 1.22948 4.81402 1.09963 5.49133C0.765762 7.23288 1.27078 9.10173 2.61797 10.4482C4.14362 11.9729 6.33968 12.4183 8.26193 11.7889C8.66401 11.6572 9.11677 11.7269 9.41602 12.026L13.8514 16.4588C14.5733 17.1804 15.7457 17.1804 16.461 16.4588C17.1763 15.7373 17.183 14.5656 16.461 13.8507L12.0262 9.41839C11.7267 9.11904 11.6569 8.66584 11.7887 8.26342C12.4175 6.3439 11.9729 4.15138 10.4502 2.62699C10.4484 2.62516 10.4484 2.62218 10.4502 2.62035V2.62035Z" stroke="#2D3238" stroke-linecap="round" stroke-linejoin="round"/>
</svg>
