<svg width="19" height="18" viewBox="0 0 19 18" fill="none" xmlns="http://www.w3.org/2000/svg">
<path d="M12.3157 7H16.9999C17.5522 7 17.9999 7.44772 17.9999 8V15C17.9999 15.5523 17.5522 16 16.9999 16H12.3157" stroke="#2D3238"/>
<rect x="0.5" y="0.5" width="12.2632" height="17" rx="0.5" stroke="#2D3238"/>
<path d="M3.78955 4.5C3.51341 4.5 3.28955 4.72386 3.28955 5C3.28955 5.27614 3.51341 5.5 3.78955 5.5V4.5ZM9.47376 5.5C9.7499 5.5 9.97376 5.27614 9.97376 5C9.97376 4.72386 9.7499 4.5 9.47376 4.5V5.5ZM3.78955 5.5L9.47376 5.5V4.5L3.78955 4.5V5.5Z" fill="#2D3238"/>
<path d="M3.78955 8.5C3.51341 8.5 3.28955 8.72386 3.28955 9C3.28955 9.27614 3.51341 9.5 3.78955 9.5V8.5ZM6.63166 9.5C6.9078 9.5 7.13166 9.27614 7.13166 9C7.13166 8.72386 6.9078 8.5 6.63166 8.5V9.5ZM3.78955 9.5H6.63166V8.5H3.78955V9.5Z" fill="#2D3238"/>
</svg>
