<svg width="16" height="16" viewBox="0 0 16 16" fill="none" xmlns="http://www.w3.org/2000/svg">
<path d="M7.31792 4.49763L7.31931 4.49878C7.71451 4.8262 8.28452 4.82787 8.68014 4.49791C9.09063 4.15594 9.78877 3.67497 10.5574 3.53772C10.9322 3.47081 11.3154 3.48698 11.6947 3.63399C12.0735 3.7808 12.4816 4.07095 12.8866 4.60426C12.8897 4.60848 13.2311 5.06897 13.4033 5.7665C13.5768 6.46949 13.5796 7.40734 12.8781 8.3951C11.7232 10.0213 9.42903 12.1032 8.3014 13.0847C8.12665 13.2367 7.87335 13.2367 7.6986 13.0847C6.57097 12.1032 4.27681 10.0213 3.12187 8.3951C2.42038 7.40734 2.42316 6.46949 2.5967 5.7665C2.76901 5.06848 3.1108 4.60783 3.11337 4.60426C3.51837 4.07095 3.92649 3.7808 4.30528 3.63399C4.68459 3.48697 5.06775 3.47082 5.44236 3.53772C6.21076 3.67495 6.90847 4.15588 7.31792 4.49763ZM12.8867 4.60439C12.8866 4.60428 12.8866 4.60423 12.8866 4.60423L12.8867 4.60431L12.8867 4.60439ZM3.11259 4.6053C3.11261 4.60526 3.11264 4.60522 3.11267 4.60518L3.11259 4.6053Z" stroke="#868E97" stroke-linejoin="round"/>
</svg>
