<svg width="24" height="24" viewBox="0 0 24 24" fill="none" xmlns="http://www.w3.org/2000/svg">
<path d="M8.6087 10.3636L10.4237 6.56854C10.5899 6.22113 10.9408 6 11.3259 6H11.7826C12.3349 6 12.7826 6.44772 12.7826 7V9.36364C12.7826 9.91592 13.2303 10.3636 13.7826 10.3636H16.7742C17.4072 10.3636 17.881 10.9443 17.7539 11.5644L16.5986 17.2008C16.5032 17.666 16.0938 18 15.619 18H8.6087M8.6087 10.3636V18M8.6087 10.3636H7C6.44772 10.3636 6 10.8114 6 11.3636V17C6 17.5523 6.44772 18 7 18H8.6087" stroke="#868E97"/>
</svg>
