<svg width="17" height="16" viewBox="0 0 17 16" fill="none" xmlns="http://www.w3.org/2000/svg">
<path fill-rule="evenodd" clip-rule="evenodd" d="M9.28553 0.0409954C9.21678 0.0628079 9.10428 0.109683 9.03553 0.145183C8.96678 0.180683 8.85481 0.254152 8.78672 0.308433C8.71859 0.362714 8.60753 0.480152 8.53988 0.569339C8.47225 0.658558 8.3786 0.815933 8.33178 0.919058C8.285 1.02218 8.03275 1.66906 7.77128 2.35656C7.50978 3.04406 7.235 3.72184 7.16063 3.86274C7.08622 4.00365 6.92791 4.24974 6.80882 4.40962C6.68969 4.56949 6.48807 4.81471 6.36075 4.95456C6.23344 5.0944 5.99569 5.33368 5.83241 5.48631C5.66913 5.6389 5.4371 5.84868 5.31679 5.95246C5.19647 6.05624 4.99257 6.22568 4.86366 6.32899C4.73475 6.43231 4.46941 6.63193 4.274 6.77262L3.91872 7.02843H2.27351C0.731445 7.02843 0.621476 7.03206 0.519414 7.08637C0.459539 7.11824 0.379039 7.19909 0.340508 7.26606L0.270508 7.38781L0.278008 11.0027C0.285508 14.5991 0.285883 14.6181 0.349977 14.7039C0.385414 14.7514 0.453226 14.8192 0.500664 14.8546C0.584758 14.9174 0.63082 14.9195 2.32685 14.9347L4.06679 14.9503L4.37929 15.0699C4.55116 15.1357 4.81835 15.2299 4.97304 15.2792C5.12772 15.3285 5.40897 15.4115 5.59803 15.4636C5.7871 15.5157 6.10272 15.5939 6.29941 15.6374C6.4961 15.6809 6.82332 15.7449 7.02657 15.7796C7.22982 15.8142 7.50481 15.8567 7.63769 15.874C7.77056 15.8912 8.12538 15.9258 8.42616 15.9508C8.84053 15.9853 9.53741 15.9964 11.3024 15.9968C13.2655 15.9971 13.6599 15.9899 13.8104 15.9506C13.9087 15.9251 14.0769 15.8599 14.1842 15.8058C14.3038 15.7456 14.4579 15.6276 14.5827 15.5008C14.7193 15.3619 14.8237 15.2171 14.9009 15.0597C14.9641 14.9308 15.0321 14.7339 15.0519 14.6222C15.0728 14.5044 15.079 14.3352 15.0666 14.2195C15.0549 14.1098 15.0243 13.9481 14.9987 13.8601C14.9731 13.7722 14.9247 13.653 14.8912 13.5951C14.8329 13.4946 14.8327 13.4881 14.886 13.4477C14.9167 13.4245 14.951 13.405 14.9623 13.4044C14.9737 13.4039 15.0603 13.3404 15.1549 13.2633C15.2495 13.1863 15.3891 13.0281 15.465 12.9118C15.541 12.7955 15.6263 12.637 15.6546 12.5597C15.6828 12.4823 15.7193 12.3241 15.7356 12.2081C15.7542 12.0754 15.7542 11.919 15.7356 11.7862C15.7193 11.6702 15.6978 11.5472 15.6878 11.5128C15.6777 11.4784 15.6258 11.3603 15.5724 11.2502L15.4754 11.0501L15.5523 11.0023C15.5947 10.9761 15.7093 10.8726 15.8072 10.7724C15.9057 10.6715 16.0274 10.5034 16.0801 10.3953C16.1323 10.2881 16.1982 10.1089 16.2264 9.99718C16.2624 9.8544 16.2728 9.71978 16.2613 9.54406C16.2515 9.39356 16.2147 9.2114 16.1688 9.08637C16.1268 8.97212 16.0278 8.78793 15.9486 8.67703C15.8695 8.56612 15.7336 8.42115 15.6467 8.35487C15.5598 8.28859 15.4887 8.21928 15.4887 8.20084C15.4887 8.1824 15.5092 8.13803 15.5343 8.10218C15.5594 8.06634 15.6093 7.96259 15.6451 7.87159C15.681 7.78059 15.7224 7.60993 15.7372 7.49231C15.7526 7.36984 15.752 7.18278 15.7359 7.05462C15.7166 6.90031 15.6698 6.75228 15.5855 6.57806C15.4986 6.39859 15.4059 6.26812 15.2658 6.12809C15.1276 5.98984 14.9936 5.89421 14.8177 5.80828C14.6702 5.73624 14.483 5.67268 14.3637 5.65418C14.2452 5.63578 13.4282 5.62256 12.4027 5.62243C10.94 5.62221 10.6449 5.61503 10.6449 5.57962C10.6449 5.55618 10.6804 5.36284 10.7238 5.14993C10.7672 4.93699 10.8435 4.50968 10.8935 4.20031C10.9435 3.89093 11.0029 3.49015 11.0256 3.30968C11.0503 3.11237 11.0664 2.66387 11.0658 2.18468C11.0649 1.45281 11.059 1.36615 10.993 1.12218C10.9535 0.976089 10.8784 0.776245 10.8262 0.678058C10.7739 0.57987 10.6731 0.441902 10.6021 0.371433C10.5311 0.300964 10.3882 0.202777 10.2847 0.153214C10.1811 0.103652 10.0334 0.0486204 9.95653 0.0309017C9.87966 0.0132142 9.72538 -0.000692094 9.61366 2.66555e-05C9.50194 0.000776655 9.35428 0.0192142 9.28553 0.0409954ZM9.88544 1.02709C9.96084 1.07306 9.9975 1.12862 10.0348 1.25353C10.062 1.34456 10.099 1.55968 10.117 1.73156C10.1353 1.90546 10.1407 2.21034 10.1292 2.41906C10.1178 2.62531 10.0895 2.96984 10.0663 3.18468C10.0431 3.39953 9.98816 3.80099 9.94428 4.07687C9.90037 4.35271 9.82987 4.74646 9.78756 4.95187C9.74528 5.15724 9.67481 5.48268 9.63094 5.67499C9.58706 5.86734 9.55116 6.07146 9.55116 6.12862C9.55116 6.18578 9.57722 6.28153 9.60909 6.34143C9.64097 6.40131 9.72181 6.48171 9.78878 6.52012L9.91053 6.5899L12.0512 6.59059C13.4741 6.59106 14.2322 6.60249 14.3122 6.62471C14.3785 6.64312 14.4935 6.71418 14.5677 6.78265C14.6525 6.86074 14.7211 6.96093 14.752 7.05146C14.779 7.13087 14.8012 7.24703 14.8012 7.30965C14.8012 7.37224 14.7625 7.49974 14.7152 7.59293C14.661 7.69978 14.5831 7.79412 14.5043 7.84815C14.424 7.90324 14.2927 7.95024 14.1372 7.97965C14.004 8.00481 13.8611 8.05068 13.8195 8.08159C13.7779 8.11252 13.7189 8.17971 13.6884 8.23093C13.656 8.28534 13.6329 8.38606 13.6329 8.47324C13.6329 8.57431 13.6534 8.65012 13.6965 8.70824C13.7314 8.75543 13.8065 8.82568 13.8633 8.86437C13.954 8.92606 14.0062 8.93468 14.2886 8.93468C14.4657 8.93468 14.68 8.94959 14.7649 8.96778C14.8645 8.98915 14.9662 9.04115 15.0519 9.11446C15.1249 9.17696 15.2106 9.28509 15.2422 9.35481C15.2739 9.42453 15.2998 9.55187 15.2998 9.63781C15.2998 9.72546 15.2733 9.85243 15.2394 9.92699C15.2062 10.0001 15.1397 10.0969 15.0917 10.1421C15.0436 10.1872 14.9551 10.2463 14.8949 10.2732C14.8211 10.3063 14.6466 10.3278 14.3581 10.3394C13.9916 10.3541 13.9183 10.3657 13.8444 10.421C13.797 10.4564 13.73 10.5232 13.6955 10.5693C13.6533 10.6258 13.6329 10.7018 13.6329 10.8024C13.6329 10.8939 13.6564 10.9914 13.6936 11.0547C13.727 11.1114 13.7965 11.1835 13.848 11.215C13.8996 11.2465 14.0352 11.2866 14.1495 11.304C14.2831 11.3245 14.4037 11.3665 14.4872 11.4218C14.5588 11.4692 14.6552 11.5723 14.7014 11.651C14.7699 11.7675 14.7853 11.8317 14.7845 11.9972C14.7838 12.1232 14.7642 12.2361 14.7327 12.2947C14.7048 12.3466 14.642 12.4295 14.5931 12.4789C14.5442 12.5282 14.448 12.5944 14.3793 12.626C14.2769 12.673 14.1724 12.6836 13.8012 12.6847C13.4282 12.6858 13.3254 12.6963 13.2201 12.7442C13.1439 12.7788 13.0637 12.8481 13.0221 12.9155C12.9768 12.9888 12.9522 13.0781 12.9522 13.1696C12.9522 13.2508 12.977 13.353 13.0106 13.4106C13.0427 13.4656 13.1137 13.5367 13.1683 13.5686C13.2229 13.6005 13.3531 13.6387 13.4576 13.6535C13.5632 13.6684 13.7091 13.7163 13.786 13.7615C13.8716 13.8116 13.9565 13.8972 14.0083 13.9857C14.056 14.067 14.0986 14.1951 14.107 14.2823C14.1168 14.3846 14.1034 14.4837 14.067 14.5791C14.0369 14.658 13.9716 14.7688 13.9219 14.8254C13.8722 14.8819 13.772 14.9543 13.6992 14.9861C13.5765 15.0398 13.4402 15.0448 11.848 15.054C10.9027 15.0594 9.73553 15.0489 9.25428 15.0306C8.77303 15.0122 8.21053 14.9764 8.00428 14.951C7.79803 14.9256 7.53085 14.8896 7.41053 14.871C7.29022 14.8524 7.04413 14.8087 6.86366 14.774C6.68319 14.7393 6.36678 14.6689 6.16053 14.6176C5.95428 14.5663 5.63085 14.477 5.44179 14.4191C5.25272 14.3611 4.9785 14.2729 4.83241 14.2229L4.56679 14.1321L4.55882 10.943L4.55088 7.7539L4.84247 7.54721C5.00285 7.43353 5.29469 7.21134 5.49104 7.05343C5.68738 6.89556 6.03544 6.59834 6.26447 6.39296C6.4935 6.18759 6.8301 5.85631 7.01241 5.65681C7.19472 5.45731 7.44388 5.15984 7.5661 4.99581C7.68828 4.83174 7.8525 4.58565 7.931 4.44893C8.00953 4.31218 8.10475 4.12999 8.14263 4.04406C8.1805 3.95812 8.42338 3.33234 8.68234 2.65343C8.94131 1.97453 9.18578 1.35409 9.22563 1.27468C9.26547 1.19528 9.34203 1.09334 9.39578 1.04812C9.47084 0.984964 9.52728 0.965964 9.6395 0.966058C9.72909 0.96612 9.82416 0.989714 9.88544 1.02709ZM3.58241 10.9659V13.9659H2.41054H1.23866V10.9659V7.96593H2.41054H3.58241V10.9659Z" fill="#FF0000"/>
</svg>
