<svg width="50" height="50" viewBox="0 0 50 50" fill="none" xmlns="http://www.w3.org/2000/svg">
<path d="M25.0007 45.8333C27.2923 45.8333 29.1673 43.9583 29.1673 41.6666H20.834C20.834 43.9583 22.709 45.8333 25.0007 45.8333ZM25.0007 13.5416C30.1882 13.5416 33.334 17.75 33.334 22.9166V23.125L37.5007 27.2916V22.9166C37.5007 16.5208 34.1048 11.1666 28.1257 9.74998V8.33331C28.1257 6.60415 26.7298 5.20831 25.0007 5.20831C23.2715 5.20831 21.8757 6.60415 21.8757 8.33331V9.74998C21.3757 9.87498 20.8965 10.0625 20.4382 10.2291L23.8548 13.6458C24.2298 13.6041 24.6048 13.5416 25.0007 13.5416ZM11.2715 6.97915L8.33398 9.91665L14.1882 15.7708C13.1048 17.8541 12.5007 20.2916 12.5007 22.9166V33.3333L8.33398 37.5V39.5833H38.0006L41.6256 43.2083L44.5631 40.2708L11.2715 6.97915ZM33.334 35.4166H16.6673V22.9166C16.6673 21.5 16.9173 20.1666 17.3757 18.9583L33.334 34.9166V35.4166Z" fill="#7A7E80"/>
</svg>
