<svg width="50" height="50" viewBox="0 0 50 50" fill="none" xmlns="http://www.w3.org/2000/svg">
<path d="M41.667 8.33337H14.2295L18.3962 12.5H41.667V35.7709L45.3337 39.4375C45.6462 38.8542 45.8337 38.2084 45.8337 37.5V12.5C45.8337 10.2084 43.9587 8.33337 41.667 8.33337Z" fill="#7A7E80"/>
<path d="M37.5003 20.8334H26.7295L30.8962 25H37.5003V20.8334Z" fill="#7A7E80"/>
<path d="M2.16699 8.06246L4.66699 10.5625C4.35449 11.1458 4.16699 11.7916 4.16699 12.5V37.5C4.16699 39.7916 6.04199 41.6666 8.33366 41.6666H35.7712L41.9378 47.8333L44.8753 44.8958L5.10449 5.10413L2.16699 8.06246ZM8.33366 14.2291L14.9378 20.8333H12.5003V25H16.667V22.5625L23.2712 29.1666H12.5003V33.3333H27.4378L31.6045 37.5H8.33366V14.2291Z" fill="#7A7E80"/>
</svg>
