<svg width="17" height="16" viewBox="0 0 17 16" fill="none" xmlns="http://www.w3.org/2000/svg">
<path fill-rule="evenodd" clip-rule="evenodd" d="M9.28553 15.9558C9.21678 15.934 9.10428 15.8871 9.03553 15.8516C8.96678 15.8161 8.85481 15.7426 8.78672 15.6883C8.71859 15.6341 8.60753 15.5166 8.53988 15.4274C8.47225 15.3382 8.3786 15.1808 8.33178 15.0777C8.285 14.9746 8.03275 14.3277 7.77128 13.6402C7.50978 12.9527 7.235 12.2749 7.16063 12.134C7.08622 11.9931 6.92791 11.747 6.80882 11.5871C6.68969 11.4273 6.48807 11.1821 6.36075 11.0422C6.23344 10.9024 5.99569 10.6631 5.83241 10.5105C5.66913 10.3579 5.4371 10.1481 5.31679 10.0443C5.19647 9.94052 4.99257 9.77108 4.86366 9.66777C4.73475 9.56446 4.46941 9.36483 4.274 9.22415L3.91872 8.96833H2.27351C0.731445 8.96833 0.621476 8.96471 0.519414 8.9104C0.459539 8.87852 0.379039 8.79768 0.340508 8.73071L0.270508 8.60896L0.278008 4.99405C0.285508 1.39762 0.285883 1.37871 0.349977 1.29287C0.385414 1.2454 0.453226 1.17758 0.500664 1.14215C0.584758 1.07933 0.63082 1.0773 2.32685 1.06208L4.06679 1.04646L4.37929 0.926834C4.55116 0.861021 4.81835 0.766866 4.97304 0.717553C5.12772 0.668272 5.40897 0.585303 5.59803 0.533178C5.7871 0.481053 6.10272 0.402834 6.29941 0.359334C6.4961 0.315834 6.82332 0.251865 7.02657 0.217209C7.22982 0.182521 7.50481 0.140021 7.63769 0.122771C7.77056 0.105553 8.12538 0.0709591 8.42616 0.045928C8.84053 0.0114594 9.53741 0.000333786 11.3024 -9.53674e-06C13.2655 -0.000352859 13.6599 0.00689697 13.8104 0.0461159C13.9087 0.0717096 14.0769 0.136865 14.1842 0.190928C14.3038 0.251178 14.4579 0.369146 14.5827 0.495928C14.7193 0.634865 14.8237 0.779615 14.9009 0.937084C14.9641 1.06599 15.0321 1.26287 15.0519 1.37458C15.0728 1.4924 15.079 1.66152 15.0666 1.77724C15.0549 1.88699 15.0243 2.04871 14.9987 2.13662C14.9731 2.22452 14.9247 2.34377 14.8912 2.40162C14.8329 2.50221 14.8327 2.50862 14.886 2.54905C14.9167 2.5723 14.951 2.5918 14.9623 2.59233C14.9737 2.5929 15.0603 2.6564 15.1549 2.73343C15.2495 2.81049 15.3891 2.96871 15.465 3.08499C15.541 3.2013 15.6263 3.35974 15.6546 3.43708C15.6828 3.51443 15.7193 3.67265 15.7356 3.78865C15.7542 3.92136 15.7542 4.0778 15.7356 4.21052C15.7193 4.32655 15.6978 4.44958 15.6878 4.48396C15.6777 4.51833 15.6258 4.63649 15.5724 4.74655L15.4754 4.94665L15.5523 4.99443C15.5947 5.02071 15.7093 5.12418 15.8072 5.22433C15.9057 5.32527 16.0274 5.4934 16.0801 5.60146C16.1323 5.70871 16.1982 5.88787 16.2264 5.99958C16.2624 6.14236 16.2728 6.27699 16.2613 6.45271C16.2515 6.60321 16.2147 6.78536 16.1688 6.9104C16.1268 7.02465 16.0278 7.20883 15.9486 7.31974C15.8695 7.43065 15.7336 7.57561 15.6467 7.6419C15.5598 7.70818 15.4887 7.77749 15.4887 7.79593C15.4887 7.81436 15.5092 7.85874 15.5343 7.89458C15.5594 7.93043 15.6093 8.03418 15.6451 8.12518C15.681 8.21618 15.7224 8.38683 15.7372 8.50446C15.7526 8.62693 15.752 8.81399 15.7359 8.94215C15.7166 9.09646 15.6698 9.24449 15.5855 9.41871C15.4986 9.59818 15.4059 9.72865 15.2658 9.86868C15.1276 10.0069 14.9936 10.1026 14.8177 10.1885C14.6702 10.2605 14.483 10.3241 14.3637 10.3426C14.2452 10.361 13.4282 10.3742 12.4027 10.3743C10.94 10.3746 10.6449 10.3817 10.6449 10.4171C10.6449 10.4406 10.6804 10.6339 10.7238 10.8468C10.7672 11.0598 10.8435 11.4871 10.8935 11.7965C10.9435 12.1058 11.0029 12.5066 11.0256 12.6871C11.0503 12.8844 11.0664 13.3329 11.0658 13.8121C11.0649 14.544 11.059 14.6306 10.993 14.8746C10.9535 15.0207 10.8784 15.2205 10.8262 15.3187C10.7739 15.4169 10.6731 15.5549 10.6021 15.6253C10.5311 15.6958 10.3882 15.794 10.2847 15.8436C10.1811 15.8931 10.0334 15.9481 9.95653 15.9659C9.87966 15.9836 9.72538 15.9975 9.61366 15.9967C9.50194 15.996 9.35428 15.9776 9.28553 15.9558ZM9.88544 14.9697C9.96084 14.9237 9.9975 14.8681 10.0348 14.7432C10.062 14.6522 10.099 14.4371 10.117 14.2652C10.1353 14.0913 10.1407 13.7864 10.1292 13.5777C10.1178 13.3715 10.0895 13.0269 10.0663 12.8121C10.0431 12.5972 9.98816 12.1958 9.94428 11.9199C9.90037 11.6441 9.82987 11.2503 9.78756 11.0449C9.74528 10.8395 9.67481 10.5141 9.63094 10.3218C9.58706 10.1294 9.55116 9.9253 9.55116 9.86815C9.55116 9.81099 9.57722 9.71524 9.60909 9.65533C9.64097 9.59546 9.72181 9.51505 9.78878 9.47665L9.91053 9.40686L12.0512 9.40618C13.4741 9.40571 14.2322 9.39427 14.3122 9.37205C14.3785 9.35365 14.4935 9.28258 14.5677 9.21411C14.6525 9.13602 14.7211 9.03583 14.752 8.9453C14.779 8.8659 14.8012 8.74974 14.8012 8.68711C14.8012 8.62452 14.7625 8.49702 14.7152 8.40383C14.661 8.29699 14.5831 8.20265 14.5043 8.14861C14.424 8.09352 14.2927 8.04652 14.1372 8.01711C14.004 7.99196 13.8611 7.94608 13.8195 7.91518C13.7779 7.88424 13.7189 7.81705 13.6884 7.76583C13.656 7.71143 13.6329 7.61071 13.6329 7.52352C13.6329 7.42246 13.6534 7.34665 13.6965 7.28852C13.7314 7.24133 13.8065 7.17108 13.8633 7.1324C13.954 7.07071 14.0062 7.06208 14.2886 7.06208C14.4657 7.06208 14.68 7.04718 14.7649 7.02899C14.8645 7.00762 14.9662 6.95562 15.0519 6.8823C15.1249 6.8198 15.2106 6.71168 15.2422 6.64196C15.2739 6.57224 15.2998 6.4449 15.2998 6.35896C15.2998 6.2713 15.2733 6.14433 15.2394 6.06977C15.2062 5.99665 15.1397 5.89987 15.0917 5.85468C15.0436 5.80952 14.9551 5.75049 14.8949 5.72352C14.8211 5.69043 14.6466 5.66893 14.3581 5.65736C13.9916 5.64265 13.9183 5.63102 13.8444 5.57577C13.797 5.54033 13.73 5.47361 13.6955 5.42746C13.6533 5.37093 13.6329 5.29496 13.6329 5.1944C13.6329 5.1029 13.6564 5.00533 13.6936 4.94211C13.727 4.8854 13.7965 4.81324 13.848 4.78174C13.8996 4.75024 14.0352 4.71018 14.1495 4.69274C14.2831 4.6723 14.4037 4.63024 14.4872 4.57493C14.5588 4.52758 14.6552 4.42449 14.7014 4.34577C14.7699 4.22924 14.7853 4.16502 14.7845 3.99958C14.7838 3.87358 14.7642 3.76062 14.7327 3.70205C14.7048 3.65015 14.642 3.56727 14.5931 3.5179C14.5442 3.46852 14.448 3.40233 14.3793 3.3708C14.2769 3.3238 14.1724 3.31321 13.8012 3.31208C13.4282 3.31096 13.3254 3.30043 13.2201 3.25258C13.1439 3.21799 13.0637 3.14865 13.0221 3.0813C12.9768 3.00793 12.9522 2.91862 12.9522 2.82715C12.9522 2.74596 12.977 2.64374 13.0106 2.58615C13.0427 2.53118 13.1137 2.46005 13.1683 2.42818C13.2229 2.39627 13.3531 2.35808 13.4576 2.3433C13.5632 2.32837 13.7091 2.28043 13.786 2.2353C13.8716 2.18515 13.9565 2.09952 14.0083 2.01108C14.056 1.92974 14.0986 1.80171 14.107 1.71446C14.1168 1.61221 14.1034 1.51308 14.067 1.41762C14.0369 1.33877 13.9716 1.22799 13.9219 1.1714C13.8722 1.11483 13.772 1.04249 13.6992 1.01062C13.5765 0.956959 13.4402 0.951991 11.848 0.942803C10.9027 0.937334 9.73553 0.947897 9.25428 0.966209C8.77303 0.984522 8.21053 1.02033 8.00428 1.04574C7.79803 1.07118 7.53085 1.10721 7.41053 1.1258C7.29022 1.1444 7.04413 1.18805 6.86366 1.22277C6.68319 1.25749 6.36678 1.32787 6.16053 1.37915C5.95428 1.43043 5.63085 1.51977 5.44179 1.57771C5.25272 1.63562 4.9785 1.72387 4.83241 1.77383L4.56679 1.86465L4.55882 5.05374L4.55088 8.24286L4.84247 8.44955C5.00285 8.56324 5.29469 8.78543 5.49104 8.94333C5.68738 9.10121 6.03544 9.39843 6.26447 9.6038C6.4935 9.80918 6.8301 10.1405 7.01241 10.34C7.19472 10.5395 7.44388 10.8369 7.5661 11.001C7.68828 11.165 7.8525 11.4111 7.931 11.5478C8.00953 11.6846 8.10475 11.8668 8.14263 11.9527C8.1805 12.0386 8.42338 12.6644 8.68234 13.3433C8.94131 14.0222 9.18578 14.6427 9.22563 14.7221C9.26547 14.8015 9.34203 14.9034 9.39578 14.9486C9.47084 15.0118 9.52728 15.0308 9.6395 15.0307C9.72909 15.0306 9.82416 15.0071 9.88544 14.9697ZM3.58241 5.03083V2.03083H2.41054H1.23866V5.03083V8.03083H2.41054H3.58241V5.03083Z" fill="#7A7E80"/>
</svg>
