<svg width="16" height="18" viewBox="0 0 16 18" fill="none" xmlns="http://www.w3.org/2000/svg">
<path d="M15 16.4V14.6889C15 13.7813 14.6313 12.9108 13.9749 12.269C13.3185 11.6272 12.4283 11.2667 11.5 11.2667H4.5C3.57174 11.2667 2.6815 11.6272 2.02513 12.269C1.36875 12.9108 1 13.7813 1 14.6889V16.4" fill="#00778B"/>
<path d="M8 7.84444C9.933 7.84444 11.5 6.31226 11.5 4.42222C11.5 2.53218 9.933 1 8 1C6.067 1 4.5 2.53218 4.5 4.42222C4.5 6.31226 6.067 7.84444 8 7.84444Z" fill="#00778B"/>
<path d="M15 16.4V14.6889C15 13.7813 14.6313 12.9108 13.9749 12.269C13.3185 11.6272 12.4283 11.2667 11.5 11.2667H4.5C3.57174 11.2667 2.6815 11.6272 2.02513 12.269C1.36875 12.9108 1 13.7813 1 14.6889V16.4H15ZM11.5 4.42222C11.5 6.31226 9.933 7.84444 8 7.84444C6.067 7.84444 4.5 6.31226 4.5 4.42222C4.5 2.53218 6.067 1 8 1C9.933 1 11.5 2.53218 11.5 4.42222Z" stroke="#00778B" stroke-width="2" stroke-linecap="round" stroke-linejoin="round"/>
</svg>
