<svg width="16" height="10" viewBox="0 0 16 10" fill="none" xmlns="http://www.w3.org/2000/svg">
<path fill-rule="evenodd" clip-rule="evenodd" d="M7.50625 10C4.34063 10 1.515 7.36812 0 4.735C1.51125 2.17062 4.33938 0 7.50625 0C10.7156 0 13.5281 2.15812 15.0056 4.7275C13.605 7.49625 10.8019 10 7.50625 10ZM0.73 4.74C1.25688 5.57187 3.86625 9.375 7.50625 9.375C11.4469 9.375 13.8263 5.56063 14.2881 4.74688C13.8056 3.99813 11.4094 0.625 7.50625 0.625C3.68375 0.625 1.24063 3.97187 0.73 4.74ZM7.5 1.875C9.225 1.875 10.625 3.275 10.625 5C10.625 6.725 9.225 8.125 7.5 8.125C5.775 8.125 4.375 6.725 4.375 5C4.375 3.275 5.775 1.875 7.5 1.875ZM7.5 2.5C8.88 2.5 10 3.62 10 5C10 6.38 8.88 7.5 7.5 7.5C6.12 7.5 5 6.38 5 5C5 3.62 6.12 2.5 7.5 2.5Z" fill="#7A7E80"/>
</svg>
